<?xml version="1.0" encoding="utf-8"?>
<!-- Generator: Adobe Illustrator 27.1.0, SVG Export Plug-In . SVG Version: 6.00 Build 0)  -->
<svg version="1.1" id="Layer_1" xmlns="http://www.w3.org/2000/svg" xmlns:xlink="http://www.w3.org/1999/xlink" x="0px" y="0px"
	 viewBox="0 0 370 229" style="enable-background:new 0 0 370 229;" xml:space="preserve">
<style type="text/css">
	.st0{fill:#AFAFAF;}
	.st1{fill:#C6C6C6;}
	.st2{fill:#FF4B27;}
	.st3{fill:#FFBE01;}
	.st4{fill:#313438;}
	.st5{fill:#C1775D;}
	.st6{fill:#8E473D;}
	.st7{fill:#282A2D;}
	.st8{fill:#FFFFFF;}
	.st9{fill:#B2B1AF;}
	.st10{fill:#625AF9;}
	.st11{fill:#3636AD;}
	.st12{fill:#9B9B9B;}
	.st13{fill:#42CAFF;}
</style>
<g>
	<g>
		<path class="st0" d="M275.7,71.2h-41.9c-6.4,0-11.5-5.1-11.5-11.5V40.9c0-6.4,5.1-11.5,11.5-11.5h41.9c6.4,0,11.5,5.1,11.5,11.5
			v18.7C287.2,66.1,282.1,71.2,275.7,71.2z M233.8,30.6c-5.7,0-10.3,4.6-10.3,10.3v18.7c0,5.7,4.6,10.3,10.3,10.3h41.9
			c5.7,0,10.3-4.6,10.3-10.3V40.9c0-5.7-4.6-10.3-10.3-10.3H233.8z"/>
	</g>
</g>
<g id="flower">
	<g>
		<path class="st1" d="M287.4,185.9c-0.1,0-0.2,0-0.3,0c-0.4-0.2-0.7-0.6-0.5-1.1c0.4-1.5,1.1-3.2,1.6-4.9
			c3.6-10.5,8.6-24.9-1.8-33.8c-6,7.9-7.1,20.9,1.6,28.8c0.4,0.4,0.4,0.9,0.1,1.2c-0.4,0.4-0.9,0.4-1.2,0.1c-4.4-4.1-6.8-9.7-6.9-16
			c0-5.8,2-11.5,5.7-15.9c0.3-0.4,0.8-0.4,1.2-0.1c5.4,4.3,7.8,10.1,7.5,17.8c-0.4,6.4-2.7,13-4.4,18.5c-0.6,1.8-1.2,3.4-1.6,4.9
			C288.1,185.6,287.8,185.9,287.4,185.9z"/>
	</g>
	<g>
		<path class="st1" d="M283.2,228.8c-0.4,0-0.9-0.4-0.9-0.9c0-5.8,3.2-16.1,10.5-26.2c5.7-7.9,15.5-18,30.1-21.1
			c0.3-0.1,0.5,0,0.7,0.2c0.2,0.2,0.3,0.4,0.3,0.7c-1.2,9.1-5,16.6-11.6,22.8c-5.5,5.1-13,9.3-22.8,13c-0.4,0.2-0.9-0.1-1.1-0.5
			s0.1-0.9,0.5-1.1c20.4-7.5,30.7-17.7,33.2-33.1c-13.3,3.3-22.5,12.7-27.9,20.1c-7,9.8-10.2,19.9-10.2,25.2
			C284.1,228.5,283.7,228.8,283.2,228.8L283.2,228.8z"/>
	</g>
	<g>
		<path class="st1" d="M282.3,228.8c-0.4,0-0.8-0.4-0.9-0.8c-0.9-13,0.4-27,3.6-38.3c2-6.9,4.6-13,7.8-17.8
			c3.7-5.6,8.3-9.8,13.5-12.3c0.2-0.1,0.4-0.1,0.7,0s0.4,0.3,0.4,0.5c2.1,6.5,1.8,12.4-1,17.6c-3.1,5.7-9.1,10.1-16.7,12.2
			c-0.4,0.1-0.9-0.2-1.1-0.6c-0.1-0.4,0.2-0.9,0.6-1.1c7.1-1.9,12.8-6,15.6-11.4c2.4-4.4,2.8-9.6,1.2-15.3
			c-9,4.9-15.5,14.6-19.5,28.7c-3.1,11.1-4.3,24.9-3.6,37.7C283.1,228.4,282.8,228.8,282.3,228.8
			C282.3,228.8,282.3,228.8,282.3,228.8z"/>
	</g>
</g>
<g id="decorative_elements_8_">
	<g>
		<g>
			<path class="st2" d="M134,28.6c-0.7,0-1.2,0.5-1.2,1.2s0.5,1.2,1.2,1.2s1.2-0.5,1.2-1.2S134.7,28.6,134,28.6z"/>
		</g>
		<g>
			<path class="st2" d="M147,28.6c-0.7,0-1.2,0.5-1.2,1.2s0.5,1.2,1.2,1.2c0.7,0,1.2-0.5,1.2-1.2C148.2,29.1,147.7,28.6,147,28.6z"
				/>
		</g>
		<g>
			<path class="st2" d="M160,28.6c-0.7,0-1.2,0.5-1.2,1.2s0.5,1.2,1.2,1.2c0.7,0,1.2-0.5,1.2-1.2C161.3,29.1,160.8,28.6,160,28.6z"
				/>
		</g>
	</g>
	<g>
		<path class="st3" d="M291,116.1c-0.1,0-0.2,0-0.3,0c-0.3-0.1-0.4-0.3-0.4-0.5l-2.5-13.7c-0.1-0.3,0.1-0.5,0.3-0.7
			c0.2-0.2,0.4-0.2,0.7-0.1l13,4.7c0.3,0.1,0.4,0.3,0.4,0.5c0.1,0.3-0.1,0.5-0.3,0.7l-10.5,8.9C291.3,116,291.1,116.1,291,116.1z
			 M289.4,102.8l1,5.6l0,0l1,5.6l8.7-7.4L289.4,102.8z"/>
	</g>
</g>
<g id="character_2_">
	<g id="head_4_">
		<g>
			<path class="st4" d="M231.2,106.8c1.4-3.6,4.7-7.5,6.3-11.8c1-2.6,0.5-5.1,1.1-8.3c0.4-2.1,1.4-4.3,1.3-6.9
				c-0.1-2.6-1.2-5.3-1.9-8.3c-0.9-4-1.9-7.4-3.7-10.2c-1.5-2.4-4.3-4.3-6.1-6c-2.5-2.5-4.3-4.4-7.2-5.7c-3.2-1.2-6.7-1.3-9.6-1.4
				c-5.9-0.3-11-1.4-15.9-0.1c-3,0.8-4.7,2.1-7.2,3.2c-2.9,1.3-7,2.6-9.1,4.4c-3.5,3.2-4,7.6-5.3,11.8c-1.2,3.5-3.2,9.5-1.9,15.1
				c3.1,13.2,15.4,22.6,30.7,30.2c0,0,16.3,44.4,27.2,41.5c9.8-2.6,19.1-9.3,22.1-10.4c2-9.3-3.6-12.8-7.5-19
				c-2.6-4.2-2.4-9.1-4.8-12.1C236.6,108.7,231.2,106.8,231.2,106.8z"/>
		</g>
		<g>
			<path class="st5" d="M221.6,96.7c1,7.7,3.6,17.4,6.7,23.6c1.5,3,3.5,5.9,8.5,10c3.7,2.9,8.3,5.3,11.3,6.6c0,0-27.5,16.7-61.2,3.8
				l-0.4-2.6c3.2-1.2,10.2-3.4,12.4-6.6c2-2.8,1.3-9.1,0.4-12.8c-1.5,0.3-3,0.4-3.3,0.4c-9.6,0.5-14.7-3.9-16.4-15.2
				c-1.2-7.4-2.8-22.3-2.2-29.1c0.2-1.5,0.7-3.8,2-5.9c1.4,1,2.8,2,4.3,2.8c1.9,1.2,4.7,2.1,6.7,3.1c2.1,1.1,3.9,3.5,5.9,4.3
				c2.9,1.2,8.3,1.9,11.3,2.7c4,1.1,5.2,1.8,9.6,2c0.9-0.4,1.9-0.6,2.8-0.6c3.3,0,6.1,2.6,6.6,5.9C227.1,92.7,225,95.9,221.6,96.7z"
				/>
		</g>
		<g>
			<path class="st6" d="M223.5,89.5c-0.3,0-0.5-0.2-0.6-0.5c-0.3-0.9-0.8-1.5-1.5-1.9c-0.7-0.4-1.5-0.3-2.4,0.2
				c-0.4,0.2-0.7,0-0.9-0.3c-0.2-0.4,0-0.7,0.3-0.9c1.2-0.6,2.4-0.6,3.5-0.2c1.1,0.4,1.9,1.5,2.2,2.8C224.1,89,224,89.4,223.5,89.5
				C223.7,89.5,223.6,89.5,223.5,89.5z"/>
		</g>
		<g>
			<path class="st7" d="M201.2,87.9c0.2,1.4,1,2.5,1.8,2.4c0.8-0.1,1.3-1.3,1.2-2.7c-0.2-1.4-1-2.5-1.8-2.4
				C201.7,85.2,201.1,86.5,201.2,87.9z"/>
		</g>
		<g>
			<path class="st4" d="M177.1,82.2c-0.3,0-0.5-0.1-0.7-0.4c-0.3-0.4-0.2-0.9,0.2-1.2c2.8-2,6.1-2.5,9.4-1.3
				c0.4,0.2,0.7,0.6,0.5,1.1s-0.6,0.6-1.1,0.5c-2.8-1-5.5-0.6-7.9,1.1C177.4,82.1,177.3,82.2,177.1,82.2z"/>
		</g>
		<g>
			<path class="st4" d="M208.2,82.3c-0.2,0-0.4-0.1-0.5-0.2c-4.2-3.7-9.8-2.4-11.4-1.6c-0.4,0.2-0.9,0-1.2-0.4
				c-0.2-0.4,0-0.9,0.4-1.2c1.9-0.9,8.3-2.5,13.2,1.9c0.4,0.4,0.4,0.9,0.1,1.2C208.6,82.2,208.4,82.3,208.2,82.3z"/>
		</g>
		<g>
			<path class="st6" d="M200.2,119.2c-0.3,0-0.6-0.2-0.6-0.5c-0.1-0.4,0.2-0.7,0.5-0.8c1.5-0.4,4.5-1.1,7.4-2.5
				c0.4-0.2,0.7,0,0.9,0.3c0.2,0.4,0,0.7-0.3,0.9c-2.9,1.4-6,2.2-7.6,2.6C200.3,119.2,200.2,119.2,200.2,119.2z"/>
		</g>
		<g>
			<path class="st7" d="M184.5,89.7c0.2,1.4-0.4,2.6-1.2,2.7c-0.8,0.1-1.6-1-1.8-2.4c-0.2-1.4,0.4-2.6,1.2-2.7
				C183.7,87.3,184.5,88.3,184.5,89.7z"/>
		</g>
		<g>
			<g>
				<path class="st6" d="M195.5,110.9c-3.1,0.4-5.9-0.7-6.8-3c-0.2-0.4,0.1-0.8,0.5-0.9c2.3-0.5,8.4-2.2,10.7-2.8
					c0.4-0.1,0.8,0.2,0.8,0.6C201,108.7,197.6,110.5,195.5,110.9z"/>
			</g>
			<g>
				<path class="st8" d="M199.8,104.1c-2.2,0.4-8.3,2.1-10.7,2.8c-0.4,0.1-0.6,0.5-0.5,0.9c0.1,0.2,0.2,0.4,0.4,0.7l11.6-2.9
					c0-0.4,0-0.4,0-0.8C200.7,104.3,200.3,104,199.8,104.1z"/>
			</g>
		</g>
		<g>
			<path class="st6" d="M191.3,100.8c-0.8,0-2-0.3-2.8-0.9c-0.6-0.4-1.1-1.1-1.2-1.7c-0.2-1.4,0.5-2.3,1.3-3.3
				c0.3-0.4,0.5-0.6,0.8-1c1.6-2.2,2.1-5.1,1.3-8.4c-0.1-0.4,0.2-0.7,0.5-0.8c0.4-0.1,0.7,0.2,0.8,0.5c1.1,4.6-0.3,7.7-1.6,9.5
				c-0.3,0.4-0.6,0.8-0.9,1.1c-0.8,1-1.2,1.5-1.1,2.3c0,0.3,0.3,0.5,0.6,0.8c0.7,0.5,1.8,0.7,2.2,0.6c0.4-0.1,0.7,0.2,0.8,0.5
				c0.1,0.4-0.2,0.7-0.5,0.8C191.6,100.8,191.4,100.8,191.3,100.8z"/>
		</g>
		<g>
			<circle class="st3" cx="221.6" cy="96.7" r="2.2"/>
		</g>
	</g>
	<g id="glasses">
		<g>
			<path class="st8" d="M181.2,100.5c-3.7,0-7.1-3.2-7.7-7.5c-0.4-2.3,0.2-4.5,1.3-6.3c1.2-1.9,2.9-3,4.9-3.3c2-0.3,4,0.4,5.7,1.8
				c1.6,1.4,2.7,3.5,3,5.8l0,0c0.4,2.3-0.2,4.5-1.3,6.3c-1.2,1.9-2.9,3-4.9,3.3C181.8,100.5,181.5,100.5,181.2,100.5z M180.6,84.2
				c-0.3,0-0.5,0-0.8,0.1c-1.7,0.3-3.2,1.2-4.3,2.8c-1.1,1.6-1.4,3.6-1.2,5.7c0.6,4.2,4,7.2,7.5,6.7c1.7-0.3,3.2-1.2,4.3-2.8
				c1.1-1.6,1.4-3.6,1.2-5.7l0,0c-0.3-2-1.2-3.9-2.7-5.1C183.5,84.8,182.1,84.2,180.6,84.2z"/>
		</g>
		<g>
			<path class="st9" d="M178.4,99.9c-0.1,0-0.2,0-0.2-0.1c-2.5-1.2-4.3-3.8-4.7-6.8c-0.2-1.2-0.1-2.5,0.2-3.7
				c0.1-0.3,0.4-0.4,0.6-0.4c0.3,0.1,0.4,0.4,0.4,0.6c-0.3,1.1-0.4,2.2-0.2,3.4c0.4,2.8,2,5.1,4.2,6.1c0.3,0.1,0.4,0.4,0.3,0.6
				C178.8,99.8,178.6,99.9,178.4,99.9z"/>
		</g>
		<g>
			<path class="st8" d="M200.4,98.1c-1.7,0-3.3-0.6-4.7-1.9c-1.6-1.4-2.7-3.5-3-5.8c-0.7-4.7,2.1-9.1,6.2-9.6c4.1-0.6,8,2.8,8.6,7.5
				l0,0c0.7,4.7-2.1,9.1-6.2,9.6C201.1,98.1,200.8,98.1,200.4,98.1z M199.9,81.8c-0.3,0-0.5,0-0.8,0.1c-3.6,0.5-6,4.3-5.4,8.5
				c0.3,2,1.2,3.9,2.7,5.1s3.2,1.8,4.9,1.6c3.6-0.5,6-4.3,5.4-8.5l0,0C206.1,84.6,203.2,81.8,199.9,81.8z"/>
		</g>
		<g>
			<path class="st8" d="M187.9,90.9c-0.2,0-0.3-0.1-0.4-0.2c-0.2-0.2-0.2-0.5,0.1-0.7c1.6-1.3,4.5-1.2,5.7-0.8
				c0.3,0.1,0.4,0.4,0.3,0.6c-0.1,0.3-0.4,0.4-0.6,0.3c-1-0.4-3.5-0.4-4.7,0.6C188.2,90.8,188,90.9,187.9,90.9z"/>
		</g>
		<g>
			<path class="st8" d="M206.9,88c-0.2,0-0.4-0.1-0.4-0.4c-0.1-0.3,0.1-0.5,0.3-0.6l10.3-3.5c0.3-0.1,0.5,0.1,0.6,0.3
				c0.1,0.3-0.1,0.5-0.3,0.6l-10.3,3.5C207.1,88,207,88,206.9,88z"/>
		</g>
	</g>
	<g id="hand_10_">
		<g>
			<path class="st5" d="M108.2,138.2c-1.4-4.3-2.8-7.1-3.1-7.4c-1.4-1.3-2.3-1-9.9-1.7s-17-3.5-19.2-6.1c-0.4-0.5-0.7-1.1-0.7-1.5
				c-2.1-1-3.8-1.9-4.7-2.6c-1.5-1.4-2.6-3.9-0.2-5.5c0,0-2.2-1.5-1.6-3.2c0.6-1.7,1.6-3,6.6-1.6c-1.4-2.3,0.1-4.3,2.8-3.4
				c2.8,0.9,6.8,3.6,10.9,5.2c3.5,1.4,6.4,1.8,11.5,1.7c1.5-0.1,2.2-2,1-2.9c-0.4-0.4-0.9-0.7-1.2-1c-3-2.7-7.3-6.3-4.3-8.6
				c2.2-1.8,4.9-0.8,11.6,3.9c5.6,3.9,11.7,3.5,15.9,8.3c3,3.6,4,9.5,6.2,15.6C136.5,145,112.8,152.2,108.2,138.2z"/>
		</g>
		<g>
			<path class="st6" d="M121.4,122.6c-0.2,0-0.4-0.1-0.5-0.3c-3.2-3.9-7.4-3.9-12.7-2.7c-1,0.3-2,0.4-3,0.7c-4.5,1.1-9.1,2.2-12.5,2
				c-3.9-0.4-9.3-1.7-12.8-2.8c-1.8-0.5-3.5,0.2-3.8,1.2c-0.1,0.4-0.5,0.5-0.9,0.4c-0.4-0.1-0.5-0.5-0.4-0.9c0.6-1.9,3.1-2.8,5.4-2
				c3.4,1.1,8.7,2.3,12.5,2.7c3.1,0.3,7.7-0.8,12.1-1.9c1-0.3,2-0.5,3-0.7c5.1-1.2,10.2-1.6,14,3.1c0.3,0.3,0.2,0.7-0.1,1
				C121.8,122.5,121.6,122.6,121.4,122.6z"/>
		</g>
		<g>
			<path class="st6" d="M93.1,116c-0.1,0-0.1,0-0.2,0c-4.2-1-12.7-3.5-17.8-6.8c-0.3-0.2-0.4-0.6-0.2-0.9c0.2-0.3,0.6-0.4,0.9-0.2
				c4.3,2.8,12.1,5.5,17.4,6.7c0.4,0.1,0.6,0.4,0.5,0.8C93.7,115.8,93.4,116,93.1,116z"/>
		</g>
		<g>
			<path class="st6" d="M92.7,119.8c-1.3,0-9-1.6-12.7-3.1c-1.1-0.4-2-0.9-2.9-1.3c-2.3-1.2-4.2-2-6.3-1.3c-0.4,0.1-0.7-0.1-0.8-0.4
				c-0.1-0.4,0.1-0.7,0.4-0.8c2.7-0.8,4.9,0.3,7.3,1.4c0.9,0.4,1.9,0.9,2.8,1.3c3.9,1.5,11.4,3,12.2,3l0,0c0.4,0,0.7,0.2,0.7,0.5
				c0.1,0.4-0.2,0.7-0.5,0.8C92.8,119.8,92.7,119.8,92.7,119.8z M92.6,118.5L92.6,118.5L92.6,118.5z"/>
		</g>
	</g>
	<g id="body_5_">
		<g>
			<path class="st10" d="M181.8,228.4c0.1-4.2,0.9-20.2-1.8-28c-0.3-0.8-0.8-2.3-0.8-2.3s-10.4,6.9-21.1,13
				c-8.3,4.6-20.3,3.5-26.1-7.6c-10.2-19.6-27.6-66.5-27.6-66.5l26.2-10.1c0,0,17.1,36.3,22.7,45.2c10.9-15.6,14.2-21.5,19.5-26.5
				c2.7-2.5,7.1-5,13.7-7.3c0,0,8.4,5.1,22.9,5.1c23.7,0,38.7-6.3,38.7-6.3c4.9,1.2,10.2,3.4,14.6,8.3
				c12.8,14.4,20.5,46.6,22.9,58.8c2.7,13.9,4.4,23.9-6.7,24.4H181.8L181.8,228.4z"/>
		</g>
		<g>
			<path class="st11" d="M208.4,206.8c-0.4,0-0.6-0.3-0.6-0.5c0-0.4,0.3-0.6,0.5-0.6l53.3-4c0.4,0,0.6,0.3,0.6,0.5
				c0,0.4-0.3,0.6-0.5,0.6L208.4,206.8L208.4,206.8z"/>
		</g>
		<g>
			<path class="st11" d="M154.5,182.9c-0.4,0-0.5-0.3-0.6-0.5l-0.8-9.9c0-0.4,0.2-0.6,0.5-0.6c0.4,0,0.6,0.2,0.6,0.5l0.8,9.9
				C155.2,182.6,155,182.8,154.5,182.9C154.6,182.9,154.5,182.9,154.5,182.9z"/>
		</g>
		<g>
			<path class="st11" d="M179.5,197.1c-0.3,0-0.4-0.2-0.5-0.4c-0.4-1.1-0.9-2.1-1.2-3.2c-2-4.8-3.6-8.9-3.9-14.5
				c-0.4-5.9,1.8-11.6,3.8-17.3c0.7-1.9,1.4-3.8,2-5.7c0.1-0.4,0.4-0.5,0.8-0.4c0.4,0.1,0.5,0.4,0.4,0.8c-0.6,2-1.3,3.9-2,5.8
				c-2.1,5.8-4.1,11.2-3.7,16.8c0.3,5.3,2,9.4,3.8,14.1c0.4,1.1,0.8,2.1,1.2,3.2c0.1,0.4,0,0.6-0.4,0.8
				C179.7,197.1,179.6,197.1,179.5,197.1z"/>
		</g>
		<g>
			<path class="st11" d="M253,203.2c-0.3,0-0.5-0.2-0.5-0.4c-2.4-7.5-6.9-22.6-7-22.8c-0.1-0.4,0.1-0.6,0.4-0.7
				c0.4-0.1,0.6,0.1,0.7,0.4c0.1,0.2,4.6,15.4,7,22.8c0.1,0.4-0.1,0.6-0.4,0.8C253.1,203.2,253.1,203.2,253,203.2z"/>
		</g>
		<g>
			<path class="st8" d="M227.7,150.4c-8.3,0-15.4-2.4-20.1-6.9c-0.1-0.1-0.2,0-0.3,0c-4,3.1-17,8.8-29.2-1.7c-0.1,0-0.1-0.1,0-0.2
				c0-0.1,0.1-0.1,0.2,0c12,10.4,24.9,4.7,28.8,1.7c0.2-0.1,0.4-0.2,0.5,0c12.6,11.9,37.4,6.5,49.6-2.7c0.1,0,0.1,0,0.2,0
				c0,0.1,0,0.1,0,0.2c-6.6,4.9-15.9,8.3-24.9,9.3C230.8,150.3,229.2,150.4,227.7,150.4z"/>
		</g>
	</g>
	<g id="hand_1_">
		<g>
			<path class="st5" d="M208.2,206.9c-4.2,0.4-6.9,0.3-9.9,0.2c-9.1-0.4-17.1-0.2-25,2c-5.3,1.7-12.5,6.2-11.7,9.3
				c0.2,0.8,1,1.1,1.4,1.2c1.2,0.2,2.5-2.3,4.7-2.9c0.6-0.2,3.1-2.8,4.1-3.6c-4.2,1.3-6.9,3-9.7,7.2c-0.9,1.4-1.6,2.5-0.9,3.6
				c0.4,0.6,1.2,1.2,2.7,0.8c1.3,1.6,3.5,1,5.1-0.6c-0.2,0.6,0,1.2,0.6,1.9c0.5,0.4,1.2,0.9,2.8,0.5c5.3-1.2,10.7-1.3,13.2-0.9
				c2.5,0.4,7.2,3.4,12.2,3.4c6,0,8-1.3,9.9-2.6c0.8,0,1.8,0,2.8-0.1L208.2,206.9z"/>
		</g>
		<g>
			<path class="st6" d="M163.1,219.5c-0.2,0-0.4-0.1-0.4-0.2c-0.3-0.3-0.3-0.7,0-1c2.9-3,6.3-5.2,9.9-6.5c1.8-0.6,7-1.5,9.5-1.6
				c0.4,0,0.7,0.3,0.7,0.6c0,0.4-0.3,0.7-0.6,0.7c-2.6,0.1-7.6,1-9.1,1.5c-3.5,1.2-6.7,3.3-9.4,6.1
				C163.4,219.5,163.2,219.5,163.1,219.5z"/>
		</g>
		<g>
			<path class="st6" d="M163.8,225.1c-0.3,0-0.4-0.1-0.5-0.4c-0.9-1.4,0.4-3.6,3.9-6.6c3.2-2.8,9.5-4.6,16.8-5
				c0.4,0,0.7,0.3,0.7,0.6c0,0.4-0.3,0.7-0.6,0.7c-7,0.3-13,2-16,4.6c-3.4,2.9-3.9,4.4-3.6,4.9c0.2,0.4,0.1,0.7-0.2,0.9
				C164,225,163.9,225.1,163.8,225.1z"/>
		</g>
		<g>
			<path class="st6" d="M169.3,223.9c-0.1,0-0.3,0-0.4-0.1c-0.4-0.2-0.4-0.6-0.3-0.9c1.2-2,4.5-3.6,6.1-4c3.3-0.9,5.3-1,8.1-1
				c1,0,2.1-0.1,3.4-0.1c0.4,0,0.7,0.3,0.7,0.6c0,0.4-0.3,0.7-0.6,0.7c-1.3,0.1-2.5,0.1-3.5,0.1c-2.7,0.1-4.6,0.1-7.8,1
				c-1.6,0.4-4.4,2-5.3,3.4C169.7,223.9,169.5,223.9,169.3,223.9z"/>
		</g>
	</g>
</g>
<g id="laptop">
	<g>
		<path class="st2" d="M76.4,228.2c-1.5,0-2.4-0.9-2.8-2.8l-14.4-58.3c-0.4-1.3,0.7-2.7,2.1-2.7h81.4c1.5,0,2.3,1.1,2.8,2.8
			l13.6,54.9h56.8c2.1,0,3.5,1.3,3.5,3l0,0c0,1.7-1.3,3-3,3H76.4z"/>
	</g>
	<g>
		
			<ellipse transform="matrix(0.672 -0.7405 0.7405 0.672 -111.1178 143.3696)" class="st8" cx="106.3" cy="197.1" rx="4.7" ry="5.7"/>
	</g>
</g>
<g>
	<path class="st12" d="M319.2,229H46.5c-0.4,0-0.6-0.3-0.6-0.6c0-0.4,0.3-0.6,0.6-0.6h272.6c0.4,0,0.6,0.3,0.6,0.6
		C319.8,228.7,319.5,229,319.2,229z"/>
</g>
<g id="programming">
	<g>
		<path class="st13" d="M66.9,50h57.4c6,0,10.9,4.9,10.9,10.9v36.2c0,6-4.9,10.9-10.9,10.9H66.9c-6,0-10.9-4.9-10.9-10.9V60.9
			C56,54.9,60.9,50,66.9,50z"/>
	</g>
	<g>
		<g>
			<g>
				<path class="st8" d="M101.6,93.4l-9.2-29.6c-0.3-0.7-1-1.2-1.7-0.9l0,0c-0.7,0.3-1.2,1-0.9,1.7l9.3,29.6c0.3,0.7,1,1.2,1.7,0.9
					l0,0C101.4,94.9,101.8,94.1,101.6,93.4z"/>
			</g>
			<g>
				<path class="st8" d="M122.1,78.9l-11.8-11.8c-0.5-0.5-1.4-0.5-2,0l0,0c-0.5,0.5-0.5,1.4,0,2l9.9,9.9l-9.9,9.9
					c-0.5,0.5-0.5,1.4,0,2l0,0c0.5,0.5,1.4,0.5,2,0L122.1,78.9z"/>
			</g>
			<g>
				<path class="st8" d="M82.8,88.9L73,79l9.9-9.9c0.5-0.5,0.5-1.4,0-2l0,0c-0.5-0.5-1.4-0.5-2,0L69.1,79l11.8,11.8
					c0.5,0.5,1.4,0.5,2,0l0,0C83.4,90.3,83.4,89.4,82.8,88.9z"/>
			</g>
		</g>
	</g>
</g>
</svg>
